# xmcd CD database file
#
# Track frame offsets:
#	150
#	26693
#	61017
#	88481
#	112297
#	136648
#	164396
#	197752
#	220556
#
# Disc length: 3244 seconds
#
# Revision: 0
# Processed by: cddbd v1.5PL3 Copyright (c) Steve Scherf et al.
# Submitted via: CDex 1.50
#
DISCID=7b0caa09
DTITLE=Mark Maxwell - Midnight Mood
DYEAR=1996
DGENRE=Jazz
TTITLE0=Misty
TTITLE1=Someday My Prince Will Come
TTITLE2=My One And Only Love
TTITLE3=Body And Soul
TTITLE4=In A Mellowtone
TTITLE5=Startdust
TTITLE6=My Funny Valentine
TTITLE7=Skylark
TTITLE8=Midnight Mood
EXTD=YEAR: 1996
EXTT0=
EXTT1=
EXTT2=
EXTT3=
EXTT4=
EXTT5=
EXTT6=
EXTT7=
EXTT8=
PLAYORDER=
